<?xml version="1.0" encoding="utf-8"?>
<!-- Generator: Adobe Illustrator 21.1.0, SVG Export Plug-In . SVG Version: 6.00 Build 0)  -->
<svg version="1.1" id="Layer_1" xmlns="http://www.w3.org/2000/svg" xmlns:xlink="http://www.w3.org/1999/xlink" x="0px" y="0px"
	 viewBox="0 0 1820 500" style="enable-background:new 0 0 1820 500;" xml:space="preserve">
<style type="text/css">
	.st0{fill:#FF914D;}
	.st1{fill:#010101;}
	.st2{fill:#040404;}
	.st3{fill:#EEF0F2;}
</style>
<g>
	<path class="st0" d="M118.8,248.4c0-125,101.1-226.4,226.1-226.4c125.2-0.1,226.9,101.4,226.9,226.4
		c0,124.9-101.8,226.6-226.9,226.5C220.1,474.8,118.8,373.4,118.8,248.4z M344.5,107c-78.7,0.1-141.3,63.1-140.6,143
		c0.7,76.4,62.6,138.6,140.9,138.7c77.7,0.1,140.9-63.3,140.8-141C485.5,169.8,422.5,107,344.5,107z"/>
	<path class="st1" d="M1137.9,207.4c11-14.3,24.1-24,41-28.2c31.4-7.8,61.8,6.1,78.1,35.9c9,16.5,13.2,34.3,14.9,52.9
		c2.1,23.1,1.1,46-6,68.1c-7.9,24.7-21.9,44.8-47,54.2c-25.7,9.6-50.9,7.6-74.6-7.3c-1-0.6-1.9-1.2-3.4-2.2
		c-0.1,2.2-0.2,3.9-0.2,5.6c0,25.3,0,50.6,0,76c0,8.7-2.6,12.2-11.1,13.8c-9.6,1.8-19.2,1.7-28.8,0.1c-8.6-1.5-10.9-4.6-10.9-13.2
		c0-74,0-147.9-0.1-221.9c0-14.5-1.5-28.9-4.3-43.1c-1.3-6.7,0-9.1,6.4-11.5c9.6-3.6,19.7-4.7,29.9-5.1c4.9-0.2,8.4,2.1,10.6,6.8
		C1134.8,194.1,1136,200.4,1137.9,207.4z M1140.6,293.9c0,14.8,0.1,29.7-0.1,44.5c-0.1,3.8,1.3,5.7,4.4,7.4c7.7,4.1,15.8,7,24.4,8.1
		c22.6,3,38.5-6.8,45.8-28.6c6.1-18.2,5.7-37.1,4.2-55.9c-0.8-10.2-2.8-20.1-7.2-29.4c-9-18.9-28-25.6-46.9-16.7
		c-9.1,4.3-16,11.2-22.4,18.8c-1.7,2.1-2.3,4.2-2.3,6.8C1140.6,263.9,1140.6,278.9,1140.6,293.9z"/>
	<path class="st1" d="M724.4,395.7c-21.4-0.8-42.4-3.9-62.1-12.8c-6.9-3.1-13.3-6.8-18.5-12.4c-3.9-4.2-5.1-8.8-3.2-14.2
		c3-8.6,7.9-16.1,14.6-22.3c3.1-2.9,6.4-3.6,10.4-1.5c7.4,4.1,15.1,7.7,23,10.8c18.2,7.2,36.7,9.6,55.6,3.7
		c19.3-6,28.6-24.4,21.7-42.6c-3.6-9.6-11.4-15.4-20-20.1c-12.2-6.8-25.3-11.8-38.1-17.3c-14.5-6.3-28.9-13-40.5-24.1
		c-12.9-12.4-19.6-27.7-21.4-45.5c-1.8-17.6-0.3-34.6,8.6-50.3c9.5-16.8,23.8-28.1,41.9-34.3c31.9-11,63.7-10,95.2,2.1
		c5.2,2,9.7,5,13.8,8.8c4.2,3.9,5.5,8.5,3.9,14c-2.3,7.8-6.1,14.8-11.2,20.9c-4.4,5.2-6.8,5.8-13.1,2.7c-10.4-5-21.2-8.8-32.8-9.9
		c-10.5-1-21-0.8-31.1,2.5c-25.4,8.2-25.7,37.6-12,50.4c5.6,5.2,12,8.9,18.9,11.9c17.8,7.8,36.2,14.2,53.2,23.7
		c19.5,11,34.3,26.2,39,48.7c5.7,26.6,3.5,52.5-13.4,75.2c-12,16-29,24.5-48.1,29C747.4,395.5,736,396.1,724.4,395.7z"/>
	<path class="st1" d="M1557.3,365.4c-7.2,8.4-14.9,15.3-23.9,20.3c-24.6,13.5-50.1,14-75.1,1.9c-16.5-8-24.5-22.9-26.7-40.8
		c-3.1-25.9,3.4-48.2,25.6-64.1c12.4-8.9,26.5-13.6,41.3-16.7c16.8-3.6,33.9-5.2,51.1-5.1c3.9,0,4.9-1.1,4.6-4.8
		c-0.3-2.8-0.2-5.7,0-8.5c0.9-18.5-9.9-26.7-26.8-28.7c-19.8-2.4-38.3,2.3-56.2,10.3c-11.5,5.1-13.7,4.5-20.5-6.2
		c-2.3-3.6-4.3-7.5-5.8-11.5c-3.1-8.1-2.1-12,4.9-17.3c9.3-6.9,20.1-10.3,31.1-12.7c25.7-5.6,51.5-6.6,77.1,0.2
		c30.5,8.1,46.9,29.4,47.3,61c0.3,25.3,0.1,50.6,0.1,76c0,19.3,0.3,38.6,4.4,57.7c1.6,7.3,0.1,9.5-7,12c-9.8,3.5-20.1,4.7-30.4,4.7
		c-4.8,0-7.6-2.8-9.4-6.9C1560,379.9,1558.7,373.1,1557.3,365.4z M1553.9,312.9c0-4.2-0.2-8.3,0.1-12.5c0.1-2.8-0.6-3.8-3.5-3.6
		c-6.6,0.5-13.3,0.4-19.9,1.1c-11.7,1.3-23.4,3-34,8.9c-11.7,6.5-16.6,20.2-12.3,33.1c3.5,10.6,14.5,15.9,28.1,14.4
		c13.4-1.5,24.1-7.8,33.5-17c5.5-5.3,9.5-11,8-19.1C1553.6,316.6,1553.9,314.8,1553.9,312.9z"/>
	<path class="st1" d="M982.2,365.4c-6.9,7.5-13.9,13.8-22,18.7c-20.4,12.4-42.1,14.9-64.8,8.1c-21.9-6.5-32-22.9-35.6-44.4
		c-1.1-6.4-1.3-12.9-1.3-19.4c0-44.8,0-89.6,0-134.5c0-9.1,3-12.7,12-13.9c8.8-1.2,17.6-1.2,26.4,0c9.2,1.3,12.4,5.1,12.4,14.3
		c0,41.8,0,83.6,0,125.5c0,4.3,0.1,8.7,1,12.9c2.8,12.5,11.6,19.4,25.6,20.2c19.2,1.2,31.8-9.4,42.2-23.9c1.2-1.7,0.7-3.5,0.7-5.3
		c0-43.2,0-86.3,0-129.5c0-8.9,3.1-12.8,12-14.1c9.1-1.4,18.3-1.4,27.4,0c9,1.4,11.9,5,11.9,14.1c0,42.8,0,85.6,0,128.5
		c0,18.2,0.6,36.3,4.4,54.2c1.4,6.6,0,8.9-6.5,11.4c-10.1,3.8-20.7,4.9-31.4,4.9c-4.6,0-7.1-3-8.9-6.9
		C984.9,379.9,983.8,373,982.2,365.4z"/>
	<path d="M1320.5,221.5c0-40.1,0-80.3,0-120.4c0-8.7,2.1-11.7,10.8-13.3c9.7-1.8,19.6-1.8,29.3,0c8.6,1.7,10.7,4.7,10.7,13.5
		c0,75.5,0,150.9,0,226.4c0,3.8,0.1,7.7,0.5,11.5c1.1,10.6,7.5,16.1,18.1,15.6c2.8-0.1,5.7-0.4,8.4-1.2c4.3-1.2,7.3,0.3,9.1,4
		c3.3,6.6,5.4,13.6,5.7,21c0.3,6.7-3.8,11.9-11.8,14.2c-16.9,4.7-33.9,4.8-50.4-1.9c-12.3-5-20.9-13.9-25.6-26.5
		c-2.6-7.1-4.3-14.4-4.4-21.9c-0.1-40.3-0.1-80.6-0.1-120.9C1320.7,221.5,1320.6,221.5,1320.5,221.5z"/>
	<path class="st2" d="M1663,286.9c0-31,0-62,0-93c0-8.2,2.4-11.7,10.4-13.4c10.5-2.1,21.2-2.3,31.7,0.3c7,1.7,9.3,5,9.3,12.2
		c0,62.3,0,124.7,0,187c0,6.9-2.3,10.2-9,12c-10.8,2.8-21.8,2.6-32.7,0.3c-7.5-1.6-9.8-5.2-9.8-12.8
		C1663,348.6,1663,317.8,1663,286.9z"/>
	<path class="st1" d="M1714.8,123.1c0,4.2,0,8.3,0,12.5c0,5.7-2.6,9.7-7.9,11.4c-11.9,3.8-23.9,4-35.8,0.1c-6.1-2-8.3-5.6-8.3-12.1
		c0-8,0.1-16-0.1-24c-0.2-6,2.7-10.1,8-11.8c11.8-3.9,23.9-4.1,35.8-0.2c6.1,2,8.2,5.7,8.3,12.1
		C1714.8,115.1,1714.8,119.1,1714.8,123.1z"/>
	<path class="st3" d="M344.5,107c77.9-0.1,141,62.8,141.1,140.7c0.1,77.7-63.1,141.1-140.8,141c-78.3-0.1-140.3-62.3-140.9-138.7
		C203.3,170.2,265.8,107.1,344.5,107z"/>
</g>
</svg>
